<svg width="23" height="17" viewBox="0 0 23 17" fill="none" xmlns="http://www.w3.org/2000/svg">
<path d="M17.0197 15.2229H8.51969C7.22156 15.2226 5.94908 14.8613 4.84447 14.1794C3.73985 13.4975 2.84661 12.5218 2.26456 11.3615C1.68251 10.2012 1.43459 8.90185 1.54848 7.60872C1.66238 6.31559 2.13362 5.07961 2.90954 4.03888C3.68546 2.99816 4.73549 2.19369 5.94229 1.71539C7.1491 1.23708 8.46514 1.10378 9.74334 1.33037C11.0215 1.55696 12.2116 2.13452 13.1804 2.99851C14.1493 3.8625 14.8588 4.97888 15.2297 6.2229H17.0197C18.2132 6.2229 19.3578 6.69701 20.2017 7.54092C21.0456 8.38484 21.5197 9.52943 21.5197 10.7229C21.5197 11.9164 21.0456 13.061 20.2017 13.9049C19.3578 14.7488 18.2132 15.2229 17.0197 15.2229Z" stroke="#6B7280" stroke-width="2" stroke-linecap="round" stroke-linejoin="round"/>
</svg>
