<svg width="15" height="14" viewBox="0 0 15 14" fill="none" xmlns="http://www.w3.org/2000/svg">
<path d="M7.54981 1.2229C6.75416 2.01855 6.30717 3.09768 6.30717 4.2229C6.30717 5.34812 6.75416 6.42725 7.54981 7.2229C8.34546 8.01855 9.42459 8.46554 10.5498 8.46554C11.675 8.46554 12.7542 8.01855 13.5498 7.2229C13.5498 8.40959 13.1979 9.56963 12.5386 10.5563C11.8793 11.543 10.9423 12.3121 9.84591 12.7662C8.74955 13.2203 7.54315 13.3391 6.37927 13.1076C5.21538 12.8761 4.14628 12.3047 3.30717 11.4655C2.46805 10.6264 1.89661 9.55733 1.6651 8.39344C1.43358 7.22956 1.5524 6.02316 2.00653 4.9268C2.46066 3.83044 3.22969 2.89337 4.21639 2.23408C5.20308 1.57479 6.36312 1.2229 7.54981 1.2229Z" stroke="#475569" stroke-width="1.33333" stroke-linecap="round" stroke-linejoin="round"/>
</svg>
