<svg width="19" height="14" viewBox="0 0 19 14" fill="none" xmlns="http://www.w3.org/2000/svg">
<path d="M1.30795 7.51296C1.2385 7.32586 1.2385 7.12005 1.30795 6.93296C1.98436 5.29283 3.13254 3.89049 4.60692 2.90371C6.0813 1.91692 7.81548 1.39014 9.58961 1.39014C11.3637 1.39014 13.0979 1.91692 14.5723 2.90371C16.0467 3.89049 17.1949 5.29283 17.8713 6.93296C17.9407 7.12005 17.9407 7.32586 17.8713 7.51296C17.1949 9.15308 16.0467 10.5554 14.5723 11.5422C13.0979 12.529 11.3637 13.0558 9.58961 13.0558C7.81548 13.0558 6.0813 12.529 4.60692 11.5422C3.13254 10.5554 1.98436 9.15308 1.30795 7.51296Z" stroke="#64748B" stroke-width="1.6725" stroke-linecap="round" stroke-linejoin="round"/>
<path d="M9.58984 9.7229C10.9706 9.7229 12.0898 8.60361 12.0898 7.2229C12.0898 5.84219 10.9706 4.7229 9.58984 4.7229C8.20913 4.7229 7.08984 5.84219 7.08984 7.2229C7.08984 8.60361 8.20913 9.7229 9.58984 9.7229Z" stroke="#64748B" stroke-width="1.6725" stroke-linecap="round" stroke-linejoin="round"/>
</svg>
