<svg width="8" height="16" viewBox="0 0 8 16" fill="none" xmlns="http://www.w3.org/2000/svg">
<path d="M5.34277 2.88949V9.91615C5.85115 10.2097 6.24848 10.6627 6.47312 11.2051C6.69777 11.7474 6.73718 12.3487 6.58524 12.9157C6.43331 13.4828 6.09852 13.9838 5.6328 14.3412C5.16709 14.6985 4.59647 14.8922 4.00944 14.8922C3.42242 14.8922 2.8518 14.6985 2.38608 14.3412C1.92036 13.9838 1.58557 13.4828 1.43364 12.9157C1.28171 12.3487 1.32112 11.7474 1.54576 11.2051C1.77041 10.6627 2.16773 10.2097 2.67611 9.91615V2.88949C2.67611 2.53586 2.81658 2.19673 3.06663 1.94668C3.31668 1.69663 3.65582 1.55615 4.00944 1.55615C4.36306 1.55615 4.7022 1.69663 4.95225 1.94668C5.2023 2.19673 5.34277 2.53586 5.34277 2.88949Z" stroke="#3B82F6" stroke-width="1.33333" stroke-linecap="round" stroke-linejoin="round"/>
</svg>
