<svg width="37" height="37" viewBox="0 0 37 37" fill="none" xmlns="http://www.w3.org/2000/svg">
<rect x="0.589844" y="0.2229" width="36" height="36" rx="12" fill="#22C55E" fill-opacity="0.2"/>
<path d="M14.4232 21.8063C16.2565 21.8063 17.7565 20.2813 17.7565 18.4313C17.7565 17.4646 17.2815 16.548 16.3315 15.773C15.3815 14.998 14.6648 13.848 14.4232 12.6396C14.1815 13.848 13.4732 15.0063 12.5148 15.773C11.5565 16.5396 11.0898 17.473 11.0898 18.4313C11.0898 20.2813 12.5898 21.8063 14.4232 21.8063Z" stroke="#475569" stroke-width="1.6725" stroke-linecap="round" stroke-linejoin="round"/>
<path d="M19.0567 13.7228C19.6298 12.8071 20.0361 11.797 20.2567 10.7395C20.6734 12.8228 21.9234 14.8228 23.59 16.1562C25.2567 17.4895 26.09 19.0728 26.09 20.7395C26.0948 21.8914 25.7574 23.0188 25.1207 23.9787C24.484 24.9387 23.5766 25.688 22.5135 26.1316C21.4504 26.5752 20.2796 26.6932 19.1493 26.4706C18.0191 26.248 16.9805 25.6948 16.165 24.8812" stroke="#475569" stroke-width="1.6725" stroke-linecap="round" stroke-linejoin="round"/>
</svg>
