<svg width="16" height="19" viewBox="0 0 16 19" fill="none" xmlns="http://www.w3.org/2000/svg">
<path d="M14.596 7.55631C14.596 11.7171 9.98019 16.0505 8.4302 17.3888C8.2858 17.4974 8.11003 17.5561 7.92936 17.5561C7.7487 17.5561 7.57293 17.4974 7.42853 17.3888C5.87853 16.0505 1.2627 11.7171 1.2627 7.55631C1.2627 5.7882 1.96507 4.09251 3.21532 2.84227C4.46556 1.59203 6.16125 0.889648 7.92936 0.889648C9.69747 0.889648 11.3932 1.59203 12.6434 2.84227C13.8936 4.09251 14.596 5.7882 14.596 7.55631Z" stroke="#64748B" stroke-width="1.6725" stroke-linecap="round" stroke-linejoin="round"/>
<path d="M7.92969 10.0562C9.3104 10.0562 10.4297 8.93686 10.4297 7.55615C10.4297 6.17544 9.3104 5.05615 7.92969 5.05615C6.54898 5.05615 5.42969 6.17544 5.42969 7.55615C5.42969 8.93686 6.54898 10.0562 7.92969 10.0562Z" stroke="#64748B" stroke-width="1.6725" stroke-linecap="round" stroke-linejoin="round"/>
</svg>
