<svg width="37" height="37" viewBox="0 0 37 37" fill="none" xmlns="http://www.w3.org/2000/svg">
<rect x="0.589844" y="0.2229" width="36" height="36" rx="12" fill="#22C55E" fill-opacity="0.2"/>
<path d="M18.5898 19.8896L21.9232 16.5563" stroke="#475569" stroke-width="1.6725" stroke-linecap="round" stroke-linejoin="round"/>
<path d="M11.3735 24.0563C10.642 22.7895 10.2569 21.3524 10.2568 19.8896C10.2568 18.4267 10.6418 16.9896 11.3732 15.7228C12.1046 14.4559 13.1566 13.4039 14.4234 12.6724C15.6903 11.941 17.1273 11.5559 18.5902 11.5559C20.053 11.5559 21.4901 11.941 22.7569 12.6724C24.0238 13.4039 25.0758 14.4559 25.8072 15.7228C26.5385 16.9896 26.9236 18.4267 26.9235 19.8896C26.9234 21.3524 26.5383 22.7895 25.8068 24.0563" stroke="#475569" stroke-width="1.6725" stroke-linecap="round" stroke-linejoin="round"/>
</svg>
