<svg width="23" height="22" viewBox="0 0 23 22" fill="none" xmlns="http://www.w3.org/2000/svg">
<path d="M3.24546 13.1219C2.5025 12.3628 1.94202 11.4446 1.60649 10.4369C1.27096 9.42908 1.16916 8.35816 1.30882 7.30522C1.44847 6.25228 1.82591 5.24492 2.41255 4.35946C2.99919 3.47399 3.77964 2.73364 4.69479 2.19447C5.60994 1.65531 6.63578 1.33147 7.69462 1.2475C8.75346 1.16352 9.81753 1.32161 10.8062 1.70978C11.7949 2.09795 12.6823 2.70603 13.4012 3.48796C14.1201 4.26988 14.6516 5.20515 14.9555 6.22292H16.7455C17.711 6.22281 18.6509 6.53324 19.4264 7.10836C20.202 7.68348 20.772 8.49278 21.0522 9.41673C21.3325 10.3407 21.3081 11.3303 20.9828 12.2393C20.6574 13.1483 20.0483 13.9286 19.2455 14.4649" stroke="#3B82F6" stroke-width="2" stroke-linecap="round" stroke-linejoin="round"/>
<path d="M15.2451 12.2229V18.2229" stroke="#3B82F6" stroke-width="2" stroke-linecap="round" stroke-linejoin="round"/>
<path d="M7.24512 12.2229V18.2229" stroke="#3B82F6" stroke-width="2" stroke-linecap="round" stroke-linejoin="round"/>
<path d="M11.2451 14.2229V20.2229" stroke="#3B82F6" stroke-width="2" stroke-linecap="round" stroke-linejoin="round"/>
</svg>
