<svg width="37" height="37" viewBox="0 0 37 37" fill="none" xmlns="http://www.w3.org/2000/svg">
<rect x="0.589844" y="0.2229" width="36" height="36" rx="12" fill="#EAB308" fill-opacity="0.2"/>
<path d="M19.2568 24.5563C19.4681 24.7147 19.714 24.8207 19.9743 24.8655C20.2345 24.9103 20.5017 24.8925 20.7538 24.8138C21.0059 24.7351 21.2356 24.5975 21.4241 24.4126C21.6126 24.2276 21.7545 24.0005 21.838 23.75C21.9215 23.4995 21.9443 23.2327 21.9044 22.9716C21.8646 22.7105 21.7633 22.4627 21.6089 22.2484C21.4545 22.0342 21.2514 21.8597 21.0163 21.7394C20.7812 21.619 20.5209 21.5563 20.2568 21.5563H10.2568" stroke="#475569" stroke-width="1.6725" stroke-linecap="round" stroke-linejoin="round"/>
<path d="M23.1735 14.8896C23.3866 14.6055 23.6687 14.3806 23.9932 14.2362C24.3176 14.0918 24.6736 14.0328 25.0273 14.0647C25.3809 14.0966 25.7206 14.2184 26.014 14.4184C26.3074 14.6185 26.5447 14.8903 26.7036 15.2079C26.8624 15.5255 26.9374 15.8785 26.9214 16.2333C26.9054 16.588 26.7991 16.9328 26.6124 17.2349C26.4257 17.537 26.1648 17.7863 25.8547 17.9592C25.5445 18.1322 25.1953 18.2229 24.8402 18.2229H10.2568" stroke="#475569" stroke-width="1.6725" stroke-linecap="round" stroke-linejoin="round"/>
<path d="M16.7568 11.8896C16.9681 11.7312 17.214 11.6252 17.4743 11.5804C17.7345 11.5356 18.0017 11.5533 18.2538 11.6321C18.5059 11.7108 18.7356 11.8483 18.9241 12.0333C19.1126 12.2183 19.2545 12.4454 19.338 12.6959C19.4215 12.9464 19.4443 13.2132 19.4044 13.4743C19.3646 13.7354 19.2633 13.9832 19.1089 14.1975C18.9545 14.4117 18.7514 14.5862 18.5163 14.7065C18.2812 14.8269 18.0209 14.8896 17.7568 14.8896H10.2568" stroke="#475569" stroke-width="1.6725" stroke-linecap="round" stroke-linejoin="round"/>
</svg>
